<svg width="512" height="512" viewBox="0 0 512 512" fill="none" xmlns="http://www.w3.org/2000/svg">
<path d="M386 230C397.046 230 406 221.046 406 210C406 198.954 397.046 190 386 190C374.954 190 366 198.954 366 210C366 221.046 374.954 230 386 230Z" fill="#0052DA"/>
<path d="M432 40H406V20C406 8.954 397.046 0 386 0C374.954 0 366 8.954 366 20V40H275V20C275 8.954 266.046 0 255 0C243.954 0 235 8.954 235 20V40H145V20C145 8.954 136.046 0 125 0C113.954 0 105 8.954 105 20V40H80C35.888 40 0 75.888 0 120V432C0 476.112 35.888 512 80 512H233C244.046 512 253 503.046 253 492C253 480.954 244.046 472 233 472H80C57.944 472 40 454.056 40 432V120C40 97.944 57.944 80 80 80H105V100C105 111.046 113.954 120 125 120C136.046 120 145 111.046 145 100V80H235V100C235 111.046 243.954 120 255 120C266.046 120 275 111.046 275 100V80H366V100C366 111.046 374.954 120 386 120C397.046 120 406 111.046 406 100V80H432C454.056 80 472 97.944 472 120V234C472 245.046 480.954 254 492 254C503.046 254 512 245.046 512 234V120C512 75.888 476.112 40 432 40Z" fill="#0052DA"/>
<path d="M391 270C324.28 270 270 324.28 270 391C270 457.72 324.28 512 391 512C457.72 512 512 457.72 512 391C512 324.28 457.72 270 391 270ZM391 472C346.337 472 310 435.664 310 391C310 346.336 346.337 310 391 310C435.663 310 472 346.336 472 391C472 435.664 435.663 472 391 472Z" fill="#0052DA"/>
<path d="M420 371H411V350C411 338.954 402.046 330 391 330C379.954 330 371 338.954 371 350V391C371 402.046 379.954 411 391 411H420C431.046 411 440 402.046 440 391C440 379.954 431.046 371 420 371Z" fill="#0052DA"/>
<path d="M299 230C310.046 230 319 221.046 319 210C319 198.954 310.046 190 299 190C287.954 190 279 198.954 279 210C279 221.046 287.954 230 299 230Z" fill="#0052DA"/>
<path d="M212 317C223.046 317 232 308.046 232 297C232 285.954 223.046 277 212 277C200.954 277 192 285.954 192 297C192 308.046 200.954 317 212 317Z" fill="#0052DA"/>
<path d="M125 230C136.046 230 145 221.046 145 210C145 198.954 136.046 190 125 190C113.954 190 105 198.954 105 210C105 221.046 113.954 230 125 230Z" fill="#0052DA"/>
<path d="M125 317C136.046 317 145 308.046 145 297C145 285.954 136.046 277 125 277C113.954 277 105 285.954 105 297C105 308.046 113.954 317 125 317Z" fill="#0052DA"/>
<path d="M125 404C136.046 404 145 395.046 145 384C145 372.954 136.046 364 125 364C113.954 364 105 372.954 105 384C105 395.046 113.954 404 125 404Z" fill="#0052DA"/>
<path d="M212 404C223.046 404 232 395.046 232 384C232 372.954 223.046 364 212 364C200.954 364 192 372.954 192 384C192 395.046 200.954 404 212 404Z" fill="#0052DA"/>
<path d="M212 230C223.046 230 232 221.046 232 210C232 198.954 223.046 190 212 190C200.954 190 192 198.954 192 210C192 221.046 200.954 230 212 230Z" fill="#0052DA"/>
</svg>
