<svg width="512" height="512" viewBox="0 0 512 512" fill="none" xmlns="http://www.w3.org/2000/svg">
<g clip-path="url(#clip0_1_2)">
<path d="M507.778 255.778L421.729 166.869C418.904 163.949 415.014 162.301 410.951 162.301H355.964V97.585C355.964 89.301 349.248 82.585 340.964 82.585H62.359C54.075 82.585 47.359 89.301 47.359 97.585V142.599H36.005C27.721 142.599 21.005 149.315 21.005 157.599C21.005 165.883 27.721 172.599 36.005 172.599H47.359V202.613H15C6.716 202.613 0 209.329 0 217.613C0 225.897 6.716 232.613 15 232.613H47.359V370.37C47.359 378.654 54.075 385.37 62.359 385.37H94.288C97.196 395.05 102.469 403.92 109.817 411.268C121.519 422.971 137.078 429.415 153.627 429.415C170.176 429.415 185.734 422.971 197.437 411.268C204.873 403.832 210.011 394.958 212.869 385.535H356.114C358.972 394.958 364.11 403.832 371.546 411.268C383.248 422.971 398.807 429.415 415.356 429.415C431.905 429.415 447.463 422.971 459.166 411.268C466.602 403.832 471.74 394.958 474.598 385.535H497C505.284 385.535 512 378.819 512 370.535V266.21C512 262.316 510.486 258.576 507.778 255.778V255.778ZM461.608 251.21H355.543V192.301H404.594L461.608 251.21ZM77.359 232.612H155.432C163.716 232.612 170.432 225.896 170.432 217.612C170.432 209.328 163.716 202.612 155.432 202.612H77.359V172.598H166.435C174.719 172.598 181.435 165.882 181.435 157.598C181.435 149.314 174.719 142.598 166.435 142.598H77.359V112.584H166.435H325.963L325.542 355.533H214.404C212.129 343.841 206.474 332.682 197.437 323.644C185.735 311.941 170.176 305.497 153.627 305.497C137.078 305.497 121.52 311.941 109.817 323.644C101.017 332.444 95.192 343.425 92.843 355.368H77.359V232.612ZM176.224 390.055C170.188 396.091 162.162 399.415 153.627 399.415C145.092 399.415 137.066 396.091 131.03 390.055C124.994 384.019 121.67 375.993 121.67 367.457C121.67 358.92 124.994 350.894 131.03 344.858C137.066 338.822 145.092 335.498 153.627 335.498C162.162 335.498 170.188 338.822 176.224 344.858C188.684 357.319 188.684 377.594 176.224 390.055ZM437.951 390.055C431.915 396.091 423.889 399.415 415.354 399.415C406.819 399.415 398.793 396.091 392.757 390.055C380.297 377.594 380.297 357.32 392.757 344.859C398.793 338.823 406.819 335.499 415.354 335.499C423.889 335.499 431.915 338.823 437.951 344.859C443.987 350.895 447.31 358.921 447.31 367.458C447.311 375.993 443.987 384.019 437.951 390.055V390.055ZM476.132 355.534C473.857 343.842 468.202 332.683 459.164 323.645C447.462 311.942 431.903 305.498 415.354 305.498C398.805 305.498 383.247 311.942 371.544 323.645C363.576 331.614 358.253 341.234 355.542 351.412V281.21H482V355.534H476.132Z" fill="white"/>
</g>
<defs>
<clipPath id="clip0_1_2">
<rect width="512" height="512" fill="white"/>
</clipPath>
</defs>
</svg>
