<svg width="512" height="512" viewBox="0 0 512 512" fill="none" xmlns="http://www.w3.org/2000/svg">
<g clip-path="url(#clip0_1_36)">
<path d="M473.709 120.342H389.47V153.162H473.709C476.726 153.162 479.18 155.616 479.18 158.632V473.709C479.18 476.726 476.726 479.179 473.709 479.179H71.1111C49.9977 479.179 32.8205 462.002 32.8205 440.889V422.326C38.4219 409.471 51.7426 401.237 67.2503 401.237C83.3291 401.237 97.0842 410.075 102.291 423.753C108.605 440.339 134.564 435.969 134.564 417.915V106.997C134.564 69.7162 104.381 39.3846 67.2656 39.3846C30.1752 39.3846 0 69.7162 0 106.997V440.889C0 480.1 31.9004 512 71.1111 512H473.709C494.823 512 512 494.823 512 473.709V158.632C512 137.519 494.823 120.342 473.709 120.342ZM32.8205 106.997C32.8205 87.8135 48.2724 72.2051 67.2821 72.2051C86.284 72.2051 101.744 87.8135 101.744 106.997V376.866C91.5233 371.422 79.7407 368.417 67.2503 368.417C54.7862 368.417 43.0244 371.41 32.8205 376.831V106.997Z" fill="#0052DA"/>
<path d="M161.915 120.342H220.991V153.162H161.915V120.342Z" fill="#0052DA"/>
<path d="M326.726 454.017H285.654C278.109 454.017 271.535 448.871 269.723 441.545L264.747 421.412C262.446 420.535 260.15 419.574 257.86 418.533L239.916 429.256C233.504 433.09 225.306 432.106 219.984 426.863L190.969 398.291C185.509 392.914 184.497 384.474 188.531 377.959L199.392 360.423C198.458 358.337 197.579 356.207 196.759 354.036L176.645 349.161C169.284 347.377 164.1 340.786 164.1 333.212V292.805C164.1 285.23 169.285 278.639 176.649 276.856L196.83 271.968C197.647 269.78 198.514 267.66 199.433 265.598L188.653 248.137C184.63 241.619 185.65 233.184 191.113 227.815L220.153 199.264L243.162 222.669L223.458 242.039L232.171 256.151C235.321 261.253 235.437 267.668 232.473 272.882C229.586 277.961 227.238 283.678 225.294 290.359C223.651 296.005 219.114 300.341 213.399 301.724L196.923 305.713V320.302L213.321 324.277C219.051 325.666 223.596 330.021 225.226 335.688C227.048 342.019 229.484 347.909 232.468 353.196C235.409 358.41 235.279 364.811 232.127 369.901L223.335 384.1L233.972 394.575L248.747 385.745C253.753 382.754 259.968 382.645 265.076 385.453C271.054 388.743 277.071 391.251 282.96 392.909C288.641 394.509 293.026 399.037 294.442 404.767L298.504 421.197H313.882L317.928 404.845C319.349 399.1 323.754 394.566 329.456 392.978C335.509 391.292 341.535 388.821 347.368 385.634C352.462 382.851 358.651 382.967 363.639 385.939L378.508 394.802L389.197 384.281L380.473 370.141C377.325 365.04 377.212 358.628 380.174 353.416C383.058 348.343 385.406 342.623 387.353 335.931C388.995 330.287 393.53 325.951 399.243 324.566L415.726 320.569V305.976L399.327 302C393.597 300.611 389.051 296.254 387.421 290.587C385.601 284.257 383.165 278.367 380.183 273.083C377.24 267.869 377.37 261.467 380.522 256.376L389.315 242.178L369.637 222.799L392.667 199.414L421.681 227.987C427.14 233.364 428.152 241.804 424.119 248.319L413.257 265.855C414.192 267.94 415.07 270.071 415.889 272.242L436.004 277.117C443.366 278.901 448.549 285.491 448.549 293.065V333.473C448.549 341.047 443.367 347.636 436.006 349.42L415.822 354.316C415.002 356.51 414.135 358.634 413.215 360.701L423.998 378.182C428.017 384.696 426.998 393.122 421.543 398.491L392.503 427.079C387.185 432.317 378.999 433.302 372.588 429.48L354.511 418.703C352.228 419.728 349.925 420.675 347.606 421.543L342.658 441.545C340.844 448.872 334.271 454.017 326.726 454.017V454.017Z" fill="#0052DA"/>
<path d="M329.299 119.248H362.12V149.88H329.299V119.248Z" fill="#0052DA"/>
<path d="M345.709 96.2735C354.772 96.2735 362.12 88.9261 362.12 79.8632V38.0401C362.12 17.0656 344.852 -1.52588e-05 323.626 -1.52588e-05H289.023C267.798 -1.52588e-05 250.53 17.0656 250.53 38.0401V289.571C250.53 293.013 251.612 296.367 253.623 299.16L293.007 353.862C299.448 362.808 313.202 362.808 319.642 353.862L359.027 299.16C361.038 296.367 362.12 293.013 362.12 289.571V170.667H329.299V284.279L306.325 316.188L283.35 284.279V96.2735H345.709ZM283.35 38.0401C283.35 35.1617 285.895 32.8205 289.024 32.8205H323.627C326.754 32.8205 329.3 35.1628 329.3 38.0401V63.453H283.352V38.0401H283.35Z" fill="#0052DA"/>
</g>
<defs>
<clipPath id="clip0_1_36">
<rect width="512" height="512" fill="white"/>
</clipPath>
</defs>
</svg>
